# xmcd
#
# Track frame offsets:
#	150
#	14845
#	28080
#	41533
#	56546
#	72645
#	84859
#	100281
#	114770
#	126604
#	136445
#	150702
#	164562
#	180215
#	194090
#	208863
#	224382
#	236601
#	249718
#	263945
#
# Disc length: 3682 seconds
#
# Revision: 0
# Processed by: cddbd v1.5.2PL0 Copyright (c) Steve Scherf et al.
# Submitted via: EasyCDDAExtractor 12.0.1.1
#
DISCID=2f0e6014
DTITLE=ZICO E ZECA - ZICO E ZECA AS 20 MAIS
DYEAR=2010
DGENRE=SERTANEJO
TTITLE0=FAZENDA SAO FRANCISCO
TTITLE1=A ENXADA E A CANETA
TTITLE2=ARRASTE
TTITLE3=BESTA BAILARINA
TTITLE4=MINEIRINHO NAO FAZ FEIO
TTITLE5=DONA JANDIRA
TTITLE6=PROVA DE AMOR
TTITLE7=VELHO PEAO
TTITLE8=PRIMINHA LINDA
TTITLE9=ADEUS MORENA
TTITLE10=CABOCLINHA SERTANEJA
TTITLE11=TROCA TAPA
TTITLE12=CANARINHO DOBRADOR
TTITLE13=FOLHA SECA
TTITLE14=ORGULHOSA
TTITLE15=PRACINHA
TTITLE16=PINGO DAGUA
TTITLE17=AI MORENINHA
TTITLE18=CAPELINHA DE CHICO MINEIRO
TTITLE19=LUZ VERMELHA
EXTD=
EXTT0=
EXTT1=
EXTT2=
EXTT3=
EXTT4=
EXTT5=
EXTT6=
EXTT7=
EXTT8=
EXTT9=
EXTT10=
EXTT11=
EXTT12=
EXTT13=
EXTT14=
EXTT15=
EXTT16=
EXTT17=
EXTT18=
EXTT19=
PLAYORDER=
